<svg xmlns="http://www.w3.org/2000/svg" width="1484" height="1458" viewBox="0 0 1484 1458" font-family="'Segoe UI', Roboto, 'Helvetica Neue', Helvetica, Arial, 'Liberation Sans', 'Noto Sans', 'DejaVu Sans', sans-serif">
<title>DeepEnsemble — member architectures</title>
<defs><marker id="tip" viewBox="0 0 10 10" refX="8" refY="5" markerWidth="6" markerHeight="6" orient="auto-start-reverse"><path d="M0,1 L9,5 L0,9 z" fill="#11161f"/></marker><marker id="tipgrey" viewBox="0 0 10 10" refX="8" refY="5" markerWidth="6" markerHeight="6" orient="auto-start-reverse"><path d="M0,1 L9,5 L0,9 z" fill="#8b93a0"/></marker><filter id="soft" x="-8%" y="-20%" width="116%" height="150%"><feDropShadow dx="0" dy="1.5" stdDeviation="2.2" flood-color="#5b6675" flood-opacity="0.13"/></filter></defs>
<rect width="1484" height="1458" fill="#ffffff"/>
<text x="26.0" y="34.0" font-size="12.5" fill="#686f7b">Each block: Conv(k×k, pad k/2, no bias) + BatchNorm + ReLU; ×½ = MaxPool 2×2 (all blocks but the last). Rectangle height <tspan font-family="'DejaVu Sans', 'Noto Sans Math', 'Segoe UI Symbol', 'Nimbus Sans', sans-serif">∝</tspan> channel width; colour = kernel size.</text>
<defs>
<linearGradient id="k3" x1="0" y1="0" x2="1" y2="1"><stop offset="0" stop-color="#7fb8c7"/><stop offset="1" stop-color="#3b88a0"/></linearGradient>
<linearGradient id="k5" x1="0" y1="0" x2="1" y2="1"><stop offset="0" stop-color="#84bca5"/><stop offset="1" stop-color="#4c9777"/></linearGradient>
</defs>
<text x="26.0" y="102.0" font-size="11.5" fill="#686f7b" font-weight="700" letter-spacing="1">MODEL</text>
<text x="496.0" y="102.0" font-size="11.5" fill="#686f7b" font-weight="700" text-anchor="middle" letter-spacing="0.6">L0 · 64²</text>
<text x="656.0" y="102.0" font-size="11.5" fill="#686f7b" font-weight="700" text-anchor="middle" letter-spacing="0.6">L1 · 32²</text>
<text x="816.0" y="102.0" font-size="11.5" fill="#686f7b" font-weight="700" text-anchor="middle" letter-spacing="0.6">L2 · 16²</text>
<text x="976.0" y="102.0" font-size="11.5" fill="#686f7b" font-weight="700" text-anchor="middle" letter-spacing="0.6">L3 · 8²</text>
<text x="1136.0" y="102.0" font-size="11.5" fill="#686f7b" font-weight="700" text-anchor="middle" letter-spacing="0.6">L4 · 8²</text>
<text x="1458.0" y="102.0" font-size="11.5" fill="#686f7b" font-weight="700" text-anchor="end" letter-spacing="1">PREDICTION HEADS</text>
<line x1="26.0" y1="114.0" x2="1458.0" y2="114.0" stroke="#d4d8de" stroke-width="1.4"/>
<g id="model_0">
<rect x="26.0" y="146.0" width="11" height="11" rx="3" fill="#3b88a0"/>
<text x="46.0" y="156.0" font-size="15" fill="#11161f" font-weight="700">Model 1</text>
<text x="26.0" y="178.0" font-size="12" fill="#686f7b">seed 42 · kernel 3×3 · 981 k params</text>
<text x="26.0" y="196.0" font-size="12" fill="#94a3b8">channels 32-64-128-256-256</text>
<text x="357.0" y="172.0" font-size="10.5" fill="#94a3b8" text-anchor="middle">3×128²</text>
<rect x="326.0" y="182.0" width="62.0" height="20" rx="5" fill="#ffffff" stroke="#c3cad3" stroke-width="1.2"/>
<line x1="394.0" y1="182.0" x2="438.0" y2="182.0" stroke="#8b93a0" stroke-width="1.5" marker-end="url(#tipgrey)"/>
<text x="416.0" y="174.0" font-size="10.5" fill="#94a3b8" text-anchor="middle">×½</text>
<rect x="444.0" y="175.0" width="104.0" height="27.0" rx="7" fill="url(#k3)"/>
<text x="496.0" y="193.5" font-size="14" fill="#ffffff" font-weight="700" text-anchor="middle">32</text>
<line x1="496.0" y1="208.0" x2="496.0" y2="220.0" stroke="#b6bec8" stroke-width="1" stroke-dasharray="3 2.5"/>
<text x="496.0" y="232.0" font-size="9.5" fill="#94a3b8" text-anchor="middle">dec L0</text>
<line x1="554.0" y1="182.0" x2="598.0" y2="182.0" stroke="#8b93a0" stroke-width="1.5" marker-end="url(#tipgrey)"/>
<text x="576.0" y="174.0" font-size="10.5" fill="#94a3b8" text-anchor="middle">×½</text>
<rect x="604.0" y="168.0" width="104.0" height="34.0" rx="7" fill="url(#k3)"/>
<text x="656.0" y="190.0" font-size="14" fill="#ffffff" font-weight="700" text-anchor="middle">64</text>
<line x1="656.0" y1="208.0" x2="656.0" y2="220.0" stroke="#b6bec8" stroke-width="1" stroke-dasharray="3 2.5"/>
<text x="656.0" y="232.0" font-size="9.5" fill="#94a3b8" text-anchor="middle">dec L1</text>
<line x1="714.0" y1="182.0" x2="758.0" y2="182.0" stroke="#8b93a0" stroke-width="1.5" marker-end="url(#tipgrey)"/>
<text x="736.0" y="174.0" font-size="10.5" fill="#94a3b8" text-anchor="middle">×½</text>
<rect x="764.0" y="154.0" width="104.0" height="48.0" rx="7" fill="url(#k3)"/>
<text x="816.0" y="183.0" font-size="14" fill="#ffffff" font-weight="700" text-anchor="middle">128</text>
<line x1="816.0" y1="208.0" x2="816.0" y2="220.0" stroke="#b6bec8" stroke-width="1" stroke-dasharray="3 2.5"/>
<text x="816.0" y="232.0" font-size="9.5" fill="#94a3b8" text-anchor="middle">dec L2</text>
<line x1="874.0" y1="182.0" x2="918.0" y2="182.0" stroke="#8b93a0" stroke-width="1.5" marker-end="url(#tipgrey)"/>
<text x="896.0" y="174.0" font-size="10.5" fill="#94a3b8" text-anchor="middle">×½</text>
<rect x="924.0" y="126.0" width="104.0" height="76.0" rx="7" fill="url(#k3)"/>
<text x="976.0" y="169.0" font-size="14" fill="#ffffff" font-weight="700" text-anchor="middle">256</text>
<line x1="976.0" y1="208.0" x2="976.0" y2="220.0" stroke="#b6bec8" stroke-width="1" stroke-dasharray="3 2.5"/>
<text x="976.0" y="232.0" font-size="9.5" fill="#94a3b8" text-anchor="middle">dec L3</text>
<line x1="1034.0" y1="182.0" x2="1078.0" y2="182.0" stroke="#8b93a0" stroke-width="1.5" marker-end="url(#tipgrey)"/>
<rect x="1084.0" y="126.0" width="104.0" height="76.0" rx="7" fill="url(#k3)"/>
<text x="1136.0" y="169.0" font-size="14" fill="#ffffff" font-weight="700" text-anchor="middle">256</text>
<line x1="1136.0" y1="208.0" x2="1136.0" y2="220.0" stroke="#b6bec8" stroke-width="1" stroke-dasharray="3 2.5"/>
<text x="1136.0" y="232.0" font-size="9.5" fill="#94a3b8" text-anchor="middle">dec L4</text>
<line x1="1194.0" y1="182.0" x2="1246.0" y2="182.0" stroke="#8b93a0" stroke-width="1.5" marker-end="url(#tipgrey)"/>
<circle cx="1266.0" cy="182.0" r="16" fill="#ffffff" stroke="#a7b0bd" stroke-width="1.2"/>
<text x="1266.0" y="186.0" font-size="10" fill="#686f7b" text-anchor="middle">GAP</text>
<line x1="1282.0" y1="182.0" x2="1310.0" y2="168.5" stroke="#c3cad3" stroke-width="1"/>
<rect x="1310.0" y="158.0" width="148.0" height="21" rx="6" fill="#ffffff" stroke="#cbd5e1" stroke-width="1"/>
<text x="1353.9" y="172.5" font-size="11" fill="#686f7b">gender <tspan font-family="'DejaVu Sans', 'Noto Sans Math', 'Segoe UI Symbol', 'Nimbus Sans', sans-serif">→</tspan> 2</text>
<line x1="1282.0" y1="182.0" x2="1310.0" y2="195.5" stroke="#c3cad3" stroke-width="1"/>
<rect x="1310.0" y="185.0" width="148.0" height="21" rx="6" fill="#ffffff" stroke="#cbd5e1" stroke-width="1"/>
<text x="1356.8" y="199.5" font-size="11" fill="#686f7b">attrs <tspan font-family="'DejaVu Sans', 'Noto Sans Math', 'Segoe UI Symbol', 'Nimbus Sans', sans-serif">→</tspan> 6</text>
</g>
<g id="model_1">
<line x1="26.0" y1="250.0" x2="1458.0" y2="250.0" stroke="#f0f2f5" stroke-width="1"/>
<rect x="26.0" y="268.0" width="11" height="11" rx="3" fill="#3b88a0"/>
<text x="46.0" y="278.0" font-size="15" fill="#11161f" font-weight="700">Model 2</text>
<text x="26.0" y="300.0" font-size="12" fill="#686f7b">seed 43 · kernel 3×3 · 981 k params</text>
<text x="26.0" y="318.0" font-size="12" fill="#94a3b8">channels 32-64-128-256-256</text>
<text x="357.0" y="294.0" font-size="10.5" fill="#94a3b8" text-anchor="middle">3×128²</text>
<rect x="326.0" y="304.0" width="62.0" height="20" rx="5" fill="#ffffff" stroke="#c3cad3" stroke-width="1.2"/>
<line x1="394.0" y1="304.0" x2="438.0" y2="304.0" stroke="#8b93a0" stroke-width="1.5" marker-end="url(#tipgrey)"/>
<text x="416.0" y="296.0" font-size="10.5" fill="#94a3b8" text-anchor="middle">×½</text>
<rect x="444.0" y="297.0" width="104.0" height="27.0" rx="7" fill="url(#k3)"/>
<text x="496.0" y="315.5" font-size="14" fill="#ffffff" font-weight="700" text-anchor="middle">32</text>
<line x1="496.0" y1="330.0" x2="496.0" y2="342.0" stroke="#b6bec8" stroke-width="1" stroke-dasharray="3 2.5"/>
<text x="496.0" y="354.0" font-size="9.5" fill="#94a3b8" text-anchor="middle">dec L0</text>
<line x1="554.0" y1="304.0" x2="598.0" y2="304.0" stroke="#8b93a0" stroke-width="1.5" marker-end="url(#tipgrey)"/>
<text x="576.0" y="296.0" font-size="10.5" fill="#94a3b8" text-anchor="middle">×½</text>
<rect x="604.0" y="290.0" width="104.0" height="34.0" rx="7" fill="url(#k3)"/>
<text x="656.0" y="312.0" font-size="14" fill="#ffffff" font-weight="700" text-anchor="middle">64</text>
<line x1="656.0" y1="330.0" x2="656.0" y2="342.0" stroke="#b6bec8" stroke-width="1" stroke-dasharray="3 2.5"/>
<text x="656.0" y="354.0" font-size="9.5" fill="#94a3b8" text-anchor="middle">dec L1</text>
<line x1="714.0" y1="304.0" x2="758.0" y2="304.0" stroke="#8b93a0" stroke-width="1.5" marker-end="url(#tipgrey)"/>
<text x="736.0" y="296.0" font-size="10.5" fill="#94a3b8" text-anchor="middle">×½</text>
<rect x="764.0" y="276.0" width="104.0" height="48.0" rx="7" fill="url(#k3)"/>
<text x="816.0" y="305.0" font-size="14" fill="#ffffff" font-weight="700" text-anchor="middle">128</text>
<line x1="816.0" y1="330.0" x2="816.0" y2="342.0" stroke="#b6bec8" stroke-width="1" stroke-dasharray="3 2.5"/>
<text x="816.0" y="354.0" font-size="9.5" fill="#94a3b8" text-anchor="middle">dec L2</text>
<line x1="874.0" y1="304.0" x2="918.0" y2="304.0" stroke="#8b93a0" stroke-width="1.5" marker-end="url(#tipgrey)"/>
<text x="896.0" y="296.0" font-size="10.5" fill="#94a3b8" text-anchor="middle">×½</text>
<rect x="924.0" y="248.0" width="104.0" height="76.0" rx="7" fill="url(#k3)"/>
<text x="976.0" y="291.0" font-size="14" fill="#ffffff" font-weight="700" text-anchor="middle">256</text>
<line x1="976.0" y1="330.0" x2="976.0" y2="342.0" stroke="#b6bec8" stroke-width="1" stroke-dasharray="3 2.5"/>
<text x="976.0" y="354.0" font-size="9.5" fill="#94a3b8" text-anchor="middle">dec L3</text>
<line x1="1034.0" y1="304.0" x2="1078.0" y2="304.0" stroke="#8b93a0" stroke-width="1.5" marker-end="url(#tipgrey)"/>
<rect x="1084.0" y="248.0" width="104.0" height="76.0" rx="7" fill="url(#k3)"/>
<text x="1136.0" y="291.0" font-size="14" fill="#ffffff" font-weight="700" text-anchor="middle">256</text>
<line x1="1136.0" y1="330.0" x2="1136.0" y2="342.0" stroke="#b6bec8" stroke-width="1" stroke-dasharray="3 2.5"/>
<text x="1136.0" y="354.0" font-size="9.5" fill="#94a3b8" text-anchor="middle">dec L4</text>
<line x1="1194.0" y1="304.0" x2="1246.0" y2="304.0" stroke="#8b93a0" stroke-width="1.5" marker-end="url(#tipgrey)"/>
<circle cx="1266.0" cy="304.0" r="16" fill="#ffffff" stroke="#a7b0bd" stroke-width="1.2"/>
<text x="1266.0" y="308.0" font-size="10" fill="#686f7b" text-anchor="middle">GAP</text>
<line x1="1282.0" y1="304.0" x2="1310.0" y2="290.5" stroke="#c3cad3" stroke-width="1"/>
<rect x="1310.0" y="280.0" width="148.0" height="21" rx="6" fill="#ffffff" stroke="#cbd5e1" stroke-width="1"/>
<text x="1353.9" y="294.5" font-size="11" fill="#686f7b">gender <tspan font-family="'DejaVu Sans', 'Noto Sans Math', 'Segoe UI Symbol', 'Nimbus Sans', sans-serif">→</tspan> 2</text>
<line x1="1282.0" y1="304.0" x2="1310.0" y2="317.5" stroke="#c3cad3" stroke-width="1"/>
<rect x="1310.0" y="307.0" width="148.0" height="21" rx="6" fill="#ffffff" stroke="#cbd5e1" stroke-width="1"/>
<text x="1356.8" y="321.5" font-size="11" fill="#686f7b">attrs <tspan font-family="'DejaVu Sans', 'Noto Sans Math', 'Segoe UI Symbol', 'Nimbus Sans', sans-serif">→</tspan> 6</text>
</g>
<g id="model_2">
<line x1="26.0" y1="372.0" x2="1458.0" y2="372.0" stroke="#f0f2f5" stroke-width="1"/>
<rect x="26.0" y="390.0" width="11" height="11" rx="3" fill="#3b88a0"/>
<text x="46.0" y="400.0" font-size="15" fill="#11161f" font-weight="700">Model 3</text>
<text x="26.0" y="422.0" font-size="12" fill="#686f7b">seed 44 · kernel 3×3 · 981 k params</text>
<text x="26.0" y="440.0" font-size="12" fill="#94a3b8">channels 32-64-128-256-256</text>
<text x="357.0" y="416.0" font-size="10.5" fill="#94a3b8" text-anchor="middle">3×128²</text>
<rect x="326.0" y="426.0" width="62.0" height="20" rx="5" fill="#ffffff" stroke="#c3cad3" stroke-width="1.2"/>
<line x1="394.0" y1="426.0" x2="438.0" y2="426.0" stroke="#8b93a0" stroke-width="1.5" marker-end="url(#tipgrey)"/>
<text x="416.0" y="418.0" font-size="10.5" fill="#94a3b8" text-anchor="middle">×½</text>
<rect x="444.0" y="419.0" width="104.0" height="27.0" rx="7" fill="url(#k3)"/>
<text x="496.0" y="437.5" font-size="14" fill="#ffffff" font-weight="700" text-anchor="middle">32</text>
<line x1="496.0" y1="452.0" x2="496.0" y2="464.0" stroke="#b6bec8" stroke-width="1" stroke-dasharray="3 2.5"/>
<text x="496.0" y="476.0" font-size="9.5" fill="#94a3b8" text-anchor="middle">dec L0</text>
<line x1="554.0" y1="426.0" x2="598.0" y2="426.0" stroke="#8b93a0" stroke-width="1.5" marker-end="url(#tipgrey)"/>
<text x="576.0" y="418.0" font-size="10.5" fill="#94a3b8" text-anchor="middle">×½</text>
<rect x="604.0" y="412.0" width="104.0" height="34.0" rx="7" fill="url(#k3)"/>
<text x="656.0" y="434.0" font-size="14" fill="#ffffff" font-weight="700" text-anchor="middle">64</text>
<line x1="656.0" y1="452.0" x2="656.0" y2="464.0" stroke="#b6bec8" stroke-width="1" stroke-dasharray="3 2.5"/>
<text x="656.0" y="476.0" font-size="9.5" fill="#94a3b8" text-anchor="middle">dec L1</text>
<line x1="714.0" y1="426.0" x2="758.0" y2="426.0" stroke="#8b93a0" stroke-width="1.5" marker-end="url(#tipgrey)"/>
<text x="736.0" y="418.0" font-size="10.5" fill="#94a3b8" text-anchor="middle">×½</text>
<rect x="764.0" y="398.0" width="104.0" height="48.0" rx="7" fill="url(#k3)"/>
<text x="816.0" y="427.0" font-size="14" fill="#ffffff" font-weight="700" text-anchor="middle">128</text>
<line x1="816.0" y1="452.0" x2="816.0" y2="464.0" stroke="#b6bec8" stroke-width="1" stroke-dasharray="3 2.5"/>
<text x="816.0" y="476.0" font-size="9.5" fill="#94a3b8" text-anchor="middle">dec L2</text>
<line x1="874.0" y1="426.0" x2="918.0" y2="426.0" stroke="#8b93a0" stroke-width="1.5" marker-end="url(#tipgrey)"/>
<text x="896.0" y="418.0" font-size="10.5" fill="#94a3b8" text-anchor="middle">×½</text>
<rect x="924.0" y="370.0" width="104.0" height="76.0" rx="7" fill="url(#k3)"/>
<text x="976.0" y="413.0" font-size="14" fill="#ffffff" font-weight="700" text-anchor="middle">256</text>
<line x1="976.0" y1="452.0" x2="976.0" y2="464.0" stroke="#b6bec8" stroke-width="1" stroke-dasharray="3 2.5"/>
<text x="976.0" y="476.0" font-size="9.5" fill="#94a3b8" text-anchor="middle">dec L3</text>
<line x1="1034.0" y1="426.0" x2="1078.0" y2="426.0" stroke="#8b93a0" stroke-width="1.5" marker-end="url(#tipgrey)"/>
<rect x="1084.0" y="370.0" width="104.0" height="76.0" rx="7" fill="url(#k3)"/>
<text x="1136.0" y="413.0" font-size="14" fill="#ffffff" font-weight="700" text-anchor="middle">256</text>
<line x1="1136.0" y1="452.0" x2="1136.0" y2="464.0" stroke="#b6bec8" stroke-width="1" stroke-dasharray="3 2.5"/>
<text x="1136.0" y="476.0" font-size="9.5" fill="#94a3b8" text-anchor="middle">dec L4</text>
<line x1="1194.0" y1="426.0" x2="1246.0" y2="426.0" stroke="#8b93a0" stroke-width="1.5" marker-end="url(#tipgrey)"/>
<circle cx="1266.0" cy="426.0" r="16" fill="#ffffff" stroke="#a7b0bd" stroke-width="1.2"/>
<text x="1266.0" y="430.0" font-size="10" fill="#686f7b" text-anchor="middle">GAP</text>
<line x1="1282.0" y1="426.0" x2="1310.0" y2="412.5" stroke="#c3cad3" stroke-width="1"/>
<rect x="1310.0" y="402.0" width="148.0" height="21" rx="6" fill="#ffffff" stroke="#cbd5e1" stroke-width="1"/>
<text x="1353.9" y="416.5" font-size="11" fill="#686f7b">gender <tspan font-family="'DejaVu Sans', 'Noto Sans Math', 'Segoe UI Symbol', 'Nimbus Sans', sans-serif">→</tspan> 2</text>
<line x1="1282.0" y1="426.0" x2="1310.0" y2="439.5" stroke="#c3cad3" stroke-width="1"/>
<rect x="1310.0" y="429.0" width="148.0" height="21" rx="6" fill="#ffffff" stroke="#cbd5e1" stroke-width="1"/>
<text x="1356.8" y="443.5" font-size="11" fill="#686f7b">attrs <tspan font-family="'DejaVu Sans', 'Noto Sans Math', 'Segoe UI Symbol', 'Nimbus Sans', sans-serif">→</tspan> 6</text>
</g>
<g id="model_3">
<line x1="26.0" y1="494.0" x2="1458.0" y2="494.0" stroke="#f0f2f5" stroke-width="1"/>
<rect x="26.0" y="512.0" width="11" height="11" rx="3" fill="#3b88a0"/>
<text x="46.0" y="522.0" font-size="15" fill="#11161f" font-weight="700">Model 4</text>
<text x="26.0" y="544.0" font-size="12" fill="#686f7b">seed 45 · kernel 3×3 · 981 k params</text>
<text x="26.0" y="562.0" font-size="12" fill="#94a3b8">channels 32-64-128-256-256</text>
<text x="357.0" y="538.0" font-size="10.5" fill="#94a3b8" text-anchor="middle">3×128²</text>
<rect x="326.0" y="548.0" width="62.0" height="20" rx="5" fill="#ffffff" stroke="#c3cad3" stroke-width="1.2"/>
<line x1="394.0" y1="548.0" x2="438.0" y2="548.0" stroke="#8b93a0" stroke-width="1.5" marker-end="url(#tipgrey)"/>
<text x="416.0" y="540.0" font-size="10.5" fill="#94a3b8" text-anchor="middle">×½</text>
<rect x="444.0" y="541.0" width="104.0" height="27.0" rx="7" fill="url(#k3)"/>
<text x="496.0" y="559.5" font-size="14" fill="#ffffff" font-weight="700" text-anchor="middle">32</text>
<line x1="496.0" y1="574.0" x2="496.0" y2="586.0" stroke="#b6bec8" stroke-width="1" stroke-dasharray="3 2.5"/>
<text x="496.0" y="598.0" font-size="9.5" fill="#94a3b8" text-anchor="middle">dec L0</text>
<line x1="554.0" y1="548.0" x2="598.0" y2="548.0" stroke="#8b93a0" stroke-width="1.5" marker-end="url(#tipgrey)"/>
<text x="576.0" y="540.0" font-size="10.5" fill="#94a3b8" text-anchor="middle">×½</text>
<rect x="604.0" y="534.0" width="104.0" height="34.0" rx="7" fill="url(#k3)"/>
<text x="656.0" y="556.0" font-size="14" fill="#ffffff" font-weight="700" text-anchor="middle">64</text>
<line x1="656.0" y1="574.0" x2="656.0" y2="586.0" stroke="#b6bec8" stroke-width="1" stroke-dasharray="3 2.5"/>
<text x="656.0" y="598.0" font-size="9.5" fill="#94a3b8" text-anchor="middle">dec L1</text>
<line x1="714.0" y1="548.0" x2="758.0" y2="548.0" stroke="#8b93a0" stroke-width="1.5" marker-end="url(#tipgrey)"/>
<text x="736.0" y="540.0" font-size="10.5" fill="#94a3b8" text-anchor="middle">×½</text>
<rect x="764.0" y="520.0" width="104.0" height="48.0" rx="7" fill="url(#k3)"/>
<text x="816.0" y="549.0" font-size="14" fill="#ffffff" font-weight="700" text-anchor="middle">128</text>
<line x1="816.0" y1="574.0" x2="816.0" y2="586.0" stroke="#b6bec8" stroke-width="1" stroke-dasharray="3 2.5"/>
<text x="816.0" y="598.0" font-size="9.5" fill="#94a3b8" text-anchor="middle">dec L2</text>
<line x1="874.0" y1="548.0" x2="918.0" y2="548.0" stroke="#8b93a0" stroke-width="1.5" marker-end="url(#tipgrey)"/>
<text x="896.0" y="540.0" font-size="10.5" fill="#94a3b8" text-anchor="middle">×½</text>
<rect x="924.0" y="492.0" width="104.0" height="76.0" rx="7" fill="url(#k3)"/>
<text x="976.0" y="535.0" font-size="14" fill="#ffffff" font-weight="700" text-anchor="middle">256</text>
<line x1="976.0" y1="574.0" x2="976.0" y2="586.0" stroke="#b6bec8" stroke-width="1" stroke-dasharray="3 2.5"/>
<text x="976.0" y="598.0" font-size="9.5" fill="#94a3b8" text-anchor="middle">dec L3</text>
<line x1="1034.0" y1="548.0" x2="1078.0" y2="548.0" stroke="#8b93a0" stroke-width="1.5" marker-end="url(#tipgrey)"/>
<rect x="1084.0" y="492.0" width="104.0" height="76.0" rx="7" fill="url(#k3)"/>
<text x="1136.0" y="535.0" font-size="14" fill="#ffffff" font-weight="700" text-anchor="middle">256</text>
<line x1="1136.0" y1="574.0" x2="1136.0" y2="586.0" stroke="#b6bec8" stroke-width="1" stroke-dasharray="3 2.5"/>
<text x="1136.0" y="598.0" font-size="9.5" fill="#94a3b8" text-anchor="middle">dec L4</text>
<line x1="1194.0" y1="548.0" x2="1246.0" y2="548.0" stroke="#8b93a0" stroke-width="1.5" marker-end="url(#tipgrey)"/>
<circle cx="1266.0" cy="548.0" r="16" fill="#ffffff" stroke="#a7b0bd" stroke-width="1.2"/>
<text x="1266.0" y="552.0" font-size="10" fill="#686f7b" text-anchor="middle">GAP</text>
<line x1="1282.0" y1="548.0" x2="1310.0" y2="534.5" stroke="#c3cad3" stroke-width="1"/>
<rect x="1310.0" y="524.0" width="148.0" height="21" rx="6" fill="#ffffff" stroke="#cbd5e1" stroke-width="1"/>
<text x="1353.9" y="538.5" font-size="11" fill="#686f7b">gender <tspan font-family="'DejaVu Sans', 'Noto Sans Math', 'Segoe UI Symbol', 'Nimbus Sans', sans-serif">→</tspan> 2</text>
<line x1="1282.0" y1="548.0" x2="1310.0" y2="561.5" stroke="#c3cad3" stroke-width="1"/>
<rect x="1310.0" y="551.0" width="148.0" height="21" rx="6" fill="#ffffff" stroke="#cbd5e1" stroke-width="1"/>
<text x="1356.8" y="565.5" font-size="11" fill="#686f7b">attrs <tspan font-family="'DejaVu Sans', 'Noto Sans Math', 'Segoe UI Symbol', 'Nimbus Sans', sans-serif">→</tspan> 6</text>
</g>
<g id="model_4">
<line x1="26.0" y1="616.0" x2="1458.0" y2="616.0" stroke="#f0f2f5" stroke-width="1"/>
<rect x="26.0" y="634.0" width="11" height="11" rx="3" fill="#3b88a0"/>
<text x="46.0" y="644.0" font-size="15" fill="#11161f" font-weight="700">Model 5</text>
<text x="26.0" y="666.0" font-size="12" fill="#686f7b">seed 46 · kernel 3×3 · 981 k params</text>
<text x="26.0" y="684.0" font-size="12" fill="#94a3b8">channels 32-64-128-256-256</text>
<text x="357.0" y="660.0" font-size="10.5" fill="#94a3b8" text-anchor="middle">3×128²</text>
<rect x="326.0" y="670.0" width="62.0" height="20" rx="5" fill="#ffffff" stroke="#c3cad3" stroke-width="1.2"/>
<line x1="394.0" y1="670.0" x2="438.0" y2="670.0" stroke="#8b93a0" stroke-width="1.5" marker-end="url(#tipgrey)"/>
<text x="416.0" y="662.0" font-size="10.5" fill="#94a3b8" text-anchor="middle">×½</text>
<rect x="444.0" y="663.0" width="104.0" height="27.0" rx="7" fill="url(#k3)"/>
<text x="496.0" y="681.5" font-size="14" fill="#ffffff" font-weight="700" text-anchor="middle">32</text>
<line x1="496.0" y1="696.0" x2="496.0" y2="708.0" stroke="#b6bec8" stroke-width="1" stroke-dasharray="3 2.5"/>
<text x="496.0" y="720.0" font-size="9.5" fill="#94a3b8" text-anchor="middle">dec L0</text>
<line x1="554.0" y1="670.0" x2="598.0" y2="670.0" stroke="#8b93a0" stroke-width="1.5" marker-end="url(#tipgrey)"/>
<text x="576.0" y="662.0" font-size="10.5" fill="#94a3b8" text-anchor="middle">×½</text>
<rect x="604.0" y="656.0" width="104.0" height="34.0" rx="7" fill="url(#k3)"/>
<text x="656.0" y="678.0" font-size="14" fill="#ffffff" font-weight="700" text-anchor="middle">64</text>
<line x1="656.0" y1="696.0" x2="656.0" y2="708.0" stroke="#b6bec8" stroke-width="1" stroke-dasharray="3 2.5"/>
<text x="656.0" y="720.0" font-size="9.5" fill="#94a3b8" text-anchor="middle">dec L1</text>
<line x1="714.0" y1="670.0" x2="758.0" y2="670.0" stroke="#8b93a0" stroke-width="1.5" marker-end="url(#tipgrey)"/>
<text x="736.0" y="662.0" font-size="10.5" fill="#94a3b8" text-anchor="middle">×½</text>
<rect x="764.0" y="642.0" width="104.0" height="48.0" rx="7" fill="url(#k3)"/>
<text x="816.0" y="671.0" font-size="14" fill="#ffffff" font-weight="700" text-anchor="middle">128</text>
<line x1="816.0" y1="696.0" x2="816.0" y2="708.0" stroke="#b6bec8" stroke-width="1" stroke-dasharray="3 2.5"/>
<text x="816.0" y="720.0" font-size="9.5" fill="#94a3b8" text-anchor="middle">dec L2</text>
<line x1="874.0" y1="670.0" x2="918.0" y2="670.0" stroke="#8b93a0" stroke-width="1.5" marker-end="url(#tipgrey)"/>
<text x="896.0" y="662.0" font-size="10.5" fill="#94a3b8" text-anchor="middle">×½</text>
<rect x="924.0" y="614.0" width="104.0" height="76.0" rx="7" fill="url(#k3)"/>
<text x="976.0" y="657.0" font-size="14" fill="#ffffff" font-weight="700" text-anchor="middle">256</text>
<line x1="976.0" y1="696.0" x2="976.0" y2="708.0" stroke="#b6bec8" stroke-width="1" stroke-dasharray="3 2.5"/>
<text x="976.0" y="720.0" font-size="9.5" fill="#94a3b8" text-anchor="middle">dec L3</text>
<line x1="1034.0" y1="670.0" x2="1078.0" y2="670.0" stroke="#8b93a0" stroke-width="1.5" marker-end="url(#tipgrey)"/>
<rect x="1084.0" y="614.0" width="104.0" height="76.0" rx="7" fill="url(#k3)"/>
<text x="1136.0" y="657.0" font-size="14" fill="#ffffff" font-weight="700" text-anchor="middle">256</text>
<line x1="1136.0" y1="696.0" x2="1136.0" y2="708.0" stroke="#b6bec8" stroke-width="1" stroke-dasharray="3 2.5"/>
<text x="1136.0" y="720.0" font-size="9.5" fill="#94a3b8" text-anchor="middle">dec L4</text>
<line x1="1194.0" y1="670.0" x2="1246.0" y2="670.0" stroke="#8b93a0" stroke-width="1.5" marker-end="url(#tipgrey)"/>
<circle cx="1266.0" cy="670.0" r="16" fill="#ffffff" stroke="#a7b0bd" stroke-width="1.2"/>
<text x="1266.0" y="674.0" font-size="10" fill="#686f7b" text-anchor="middle">GAP</text>
<line x1="1282.0" y1="670.0" x2="1310.0" y2="656.5" stroke="#c3cad3" stroke-width="1"/>
<rect x="1310.0" y="646.0" width="148.0" height="21" rx="6" fill="#ffffff" stroke="#cbd5e1" stroke-width="1"/>
<text x="1353.9" y="660.5" font-size="11" fill="#686f7b">gender <tspan font-family="'DejaVu Sans', 'Noto Sans Math', 'Segoe UI Symbol', 'Nimbus Sans', sans-serif">→</tspan> 2</text>
<line x1="1282.0" y1="670.0" x2="1310.0" y2="683.5" stroke="#c3cad3" stroke-width="1"/>
<rect x="1310.0" y="673.0" width="148.0" height="21" rx="6" fill="#ffffff" stroke="#cbd5e1" stroke-width="1"/>
<text x="1356.8" y="687.5" font-size="11" fill="#686f7b">attrs <tspan font-family="'DejaVu Sans', 'Noto Sans Math', 'Segoe UI Symbol', 'Nimbus Sans', sans-serif">→</tspan> 6</text>
</g>
<g id="model_5">
<line x1="26.0" y1="738.0" x2="1458.0" y2="738.0" stroke="#f0f2f5" stroke-width="1"/>
<rect x="26.0" y="756.0" width="11" height="11" rx="3" fill="#3b88a0"/>
<text x="46.0" y="766.0" font-size="15" fill="#11161f" font-weight="700">Model 6</text>
<text x="26.0" y="788.0" font-size="12" fill="#686f7b">seed 47 · kernel 3×3 · 981 k params</text>
<text x="26.0" y="806.0" font-size="12" fill="#94a3b8">channels 32-64-128-256-256</text>
<text x="357.0" y="782.0" font-size="10.5" fill="#94a3b8" text-anchor="middle">3×128²</text>
<rect x="326.0" y="792.0" width="62.0" height="20" rx="5" fill="#ffffff" stroke="#c3cad3" stroke-width="1.2"/>
<line x1="394.0" y1="792.0" x2="438.0" y2="792.0" stroke="#8b93a0" stroke-width="1.5" marker-end="url(#tipgrey)"/>
<text x="416.0" y="784.0" font-size="10.5" fill="#94a3b8" text-anchor="middle">×½</text>
<rect x="444.0" y="785.0" width="104.0" height="27.0" rx="7" fill="url(#k3)"/>
<text x="496.0" y="803.5" font-size="14" fill="#ffffff" font-weight="700" text-anchor="middle">32</text>
<line x1="496.0" y1="818.0" x2="496.0" y2="830.0" stroke="#b6bec8" stroke-width="1" stroke-dasharray="3 2.5"/>
<text x="496.0" y="842.0" font-size="9.5" fill="#94a3b8" text-anchor="middle">dec L0</text>
<line x1="554.0" y1="792.0" x2="598.0" y2="792.0" stroke="#8b93a0" stroke-width="1.5" marker-end="url(#tipgrey)"/>
<text x="576.0" y="784.0" font-size="10.5" fill="#94a3b8" text-anchor="middle">×½</text>
<rect x="604.0" y="778.0" width="104.0" height="34.0" rx="7" fill="url(#k3)"/>
<text x="656.0" y="800.0" font-size="14" fill="#ffffff" font-weight="700" text-anchor="middle">64</text>
<line x1="656.0" y1="818.0" x2="656.0" y2="830.0" stroke="#b6bec8" stroke-width="1" stroke-dasharray="3 2.5"/>
<text x="656.0" y="842.0" font-size="9.5" fill="#94a3b8" text-anchor="middle">dec L1</text>
<line x1="714.0" y1="792.0" x2="758.0" y2="792.0" stroke="#8b93a0" stroke-width="1.5" marker-end="url(#tipgrey)"/>
<text x="736.0" y="784.0" font-size="10.5" fill="#94a3b8" text-anchor="middle">×½</text>
<rect x="764.0" y="764.0" width="104.0" height="48.0" rx="7" fill="url(#k3)"/>
<text x="816.0" y="793.0" font-size="14" fill="#ffffff" font-weight="700" text-anchor="middle">128</text>
<line x1="816.0" y1="818.0" x2="816.0" y2="830.0" stroke="#b6bec8" stroke-width="1" stroke-dasharray="3 2.5"/>
<text x="816.0" y="842.0" font-size="9.5" fill="#94a3b8" text-anchor="middle">dec L2</text>
<line x1="874.0" y1="792.0" x2="918.0" y2="792.0" stroke="#8b93a0" stroke-width="1.5" marker-end="url(#tipgrey)"/>
<text x="896.0" y="784.0" font-size="10.5" fill="#94a3b8" text-anchor="middle">×½</text>
<rect x="924.0" y="736.0" width="104.0" height="76.0" rx="7" fill="url(#k3)"/>
<text x="976.0" y="779.0" font-size="14" fill="#ffffff" font-weight="700" text-anchor="middle">256</text>
<line x1="976.0" y1="818.0" x2="976.0" y2="830.0" stroke="#b6bec8" stroke-width="1" stroke-dasharray="3 2.5"/>
<text x="976.0" y="842.0" font-size="9.5" fill="#94a3b8" text-anchor="middle">dec L3</text>
<line x1="1034.0" y1="792.0" x2="1078.0" y2="792.0" stroke="#8b93a0" stroke-width="1.5" marker-end="url(#tipgrey)"/>
<rect x="1084.0" y="736.0" width="104.0" height="76.0" rx="7" fill="url(#k3)"/>
<text x="1136.0" y="779.0" font-size="14" fill="#ffffff" font-weight="700" text-anchor="middle">256</text>
<line x1="1136.0" y1="818.0" x2="1136.0" y2="830.0" stroke="#b6bec8" stroke-width="1" stroke-dasharray="3 2.5"/>
<text x="1136.0" y="842.0" font-size="9.5" fill="#94a3b8" text-anchor="middle">dec L4</text>
<line x1="1194.0" y1="792.0" x2="1246.0" y2="792.0" stroke="#8b93a0" stroke-width="1.5" marker-end="url(#tipgrey)"/>
<circle cx="1266.0" cy="792.0" r="16" fill="#ffffff" stroke="#a7b0bd" stroke-width="1.2"/>
<text x="1266.0" y="796.0" font-size="10" fill="#686f7b" text-anchor="middle">GAP</text>
<line x1="1282.0" y1="792.0" x2="1310.0" y2="778.5" stroke="#c3cad3" stroke-width="1"/>
<rect x="1310.0" y="768.0" width="148.0" height="21" rx="6" fill="#ffffff" stroke="#cbd5e1" stroke-width="1"/>
<text x="1353.9" y="782.5" font-size="11" fill="#686f7b">gender <tspan font-family="'DejaVu Sans', 'Noto Sans Math', 'Segoe UI Symbol', 'Nimbus Sans', sans-serif">→</tspan> 2</text>
<line x1="1282.0" y1="792.0" x2="1310.0" y2="805.5" stroke="#c3cad3" stroke-width="1"/>
<rect x="1310.0" y="795.0" width="148.0" height="21" rx="6" fill="#ffffff" stroke="#cbd5e1" stroke-width="1"/>
<text x="1356.8" y="809.5" font-size="11" fill="#686f7b">attrs <tspan font-family="'DejaVu Sans', 'Noto Sans Math', 'Segoe UI Symbol', 'Nimbus Sans', sans-serif">→</tspan> 6</text>
</g>
<g id="model_6">
<line x1="26.0" y1="860.0" x2="1458.0" y2="860.0" stroke="#f0f2f5" stroke-width="1"/>
<rect x="26.0" y="878.0" width="11" height="11" rx="3" fill="#3b88a0"/>
<text x="46.0" y="888.0" font-size="15" fill="#11161f" font-weight="700">Model 7</text>
<text x="26.0" y="910.0" font-size="12" fill="#686f7b">seed 48 · kernel 3×3 · 981 k params</text>
<text x="26.0" y="928.0" font-size="12" fill="#94a3b8">channels 32-64-128-256-256</text>
<text x="357.0" y="904.0" font-size="10.5" fill="#94a3b8" text-anchor="middle">3×128²</text>
<rect x="326.0" y="914.0" width="62.0" height="20" rx="5" fill="#ffffff" stroke="#c3cad3" stroke-width="1.2"/>
<line x1="394.0" y1="914.0" x2="438.0" y2="914.0" stroke="#8b93a0" stroke-width="1.5" marker-end="url(#tipgrey)"/>
<text x="416.0" y="906.0" font-size="10.5" fill="#94a3b8" text-anchor="middle">×½</text>
<rect x="444.0" y="907.0" width="104.0" height="27.0" rx="7" fill="url(#k3)"/>
<text x="496.0" y="925.5" font-size="14" fill="#ffffff" font-weight="700" text-anchor="middle">32</text>
<line x1="496.0" y1="940.0" x2="496.0" y2="952.0" stroke="#b6bec8" stroke-width="1" stroke-dasharray="3 2.5"/>
<text x="496.0" y="964.0" font-size="9.5" fill="#94a3b8" text-anchor="middle">dec L0</text>
<line x1="554.0" y1="914.0" x2="598.0" y2="914.0" stroke="#8b93a0" stroke-width="1.5" marker-end="url(#tipgrey)"/>
<text x="576.0" y="906.0" font-size="10.5" fill="#94a3b8" text-anchor="middle">×½</text>
<rect x="604.0" y="900.0" width="104.0" height="34.0" rx="7" fill="url(#k3)"/>
<text x="656.0" y="922.0" font-size="14" fill="#ffffff" font-weight="700" text-anchor="middle">64</text>
<line x1="656.0" y1="940.0" x2="656.0" y2="952.0" stroke="#b6bec8" stroke-width="1" stroke-dasharray="3 2.5"/>
<text x="656.0" y="964.0" font-size="9.5" fill="#94a3b8" text-anchor="middle">dec L1</text>
<line x1="714.0" y1="914.0" x2="758.0" y2="914.0" stroke="#8b93a0" stroke-width="1.5" marker-end="url(#tipgrey)"/>
<text x="736.0" y="906.0" font-size="10.5" fill="#94a3b8" text-anchor="middle">×½</text>
<rect x="764.0" y="886.0" width="104.0" height="48.0" rx="7" fill="url(#k3)"/>
<text x="816.0" y="915.0" font-size="14" fill="#ffffff" font-weight="700" text-anchor="middle">128</text>
<line x1="816.0" y1="940.0" x2="816.0" y2="952.0" stroke="#b6bec8" stroke-width="1" stroke-dasharray="3 2.5"/>
<text x="816.0" y="964.0" font-size="9.5" fill="#94a3b8" text-anchor="middle">dec L2</text>
<line x1="874.0" y1="914.0" x2="918.0" y2="914.0" stroke="#8b93a0" stroke-width="1.5" marker-end="url(#tipgrey)"/>
<text x="896.0" y="906.0" font-size="10.5" fill="#94a3b8" text-anchor="middle">×½</text>
<rect x="924.0" y="858.0" width="104.0" height="76.0" rx="7" fill="url(#k3)"/>
<text x="976.0" y="901.0" font-size="14" fill="#ffffff" font-weight="700" text-anchor="middle">256</text>
<line x1="976.0" y1="940.0" x2="976.0" y2="952.0" stroke="#b6bec8" stroke-width="1" stroke-dasharray="3 2.5"/>
<text x="976.0" y="964.0" font-size="9.5" fill="#94a3b8" text-anchor="middle">dec L3</text>
<line x1="1034.0" y1="914.0" x2="1078.0" y2="914.0" stroke="#8b93a0" stroke-width="1.5" marker-end="url(#tipgrey)"/>
<rect x="1084.0" y="858.0" width="104.0" height="76.0" rx="7" fill="url(#k3)"/>
<text x="1136.0" y="901.0" font-size="14" fill="#ffffff" font-weight="700" text-anchor="middle">256</text>
<line x1="1136.0" y1="940.0" x2="1136.0" y2="952.0" stroke="#b6bec8" stroke-width="1" stroke-dasharray="3 2.5"/>
<text x="1136.0" y="964.0" font-size="9.5" fill="#94a3b8" text-anchor="middle">dec L4</text>
<line x1="1194.0" y1="914.0" x2="1246.0" y2="914.0" stroke="#8b93a0" stroke-width="1.5" marker-end="url(#tipgrey)"/>
<circle cx="1266.0" cy="914.0" r="16" fill="#ffffff" stroke="#a7b0bd" stroke-width="1.2"/>
<text x="1266.0" y="918.0" font-size="10" fill="#686f7b" text-anchor="middle">GAP</text>
<line x1="1282.0" y1="914.0" x2="1310.0" y2="900.5" stroke="#c3cad3" stroke-width="1"/>
<rect x="1310.0" y="890.0" width="148.0" height="21" rx="6" fill="#ffffff" stroke="#cbd5e1" stroke-width="1"/>
<text x="1353.9" y="904.5" font-size="11" fill="#686f7b">gender <tspan font-family="'DejaVu Sans', 'Noto Sans Math', 'Segoe UI Symbol', 'Nimbus Sans', sans-serif">→</tspan> 2</text>
<line x1="1282.0" y1="914.0" x2="1310.0" y2="927.5" stroke="#c3cad3" stroke-width="1"/>
<rect x="1310.0" y="917.0" width="148.0" height="21" rx="6" fill="#ffffff" stroke="#cbd5e1" stroke-width="1"/>
<text x="1356.8" y="931.5" font-size="11" fill="#686f7b">attrs <tspan font-family="'DejaVu Sans', 'Noto Sans Math', 'Segoe UI Symbol', 'Nimbus Sans', sans-serif">→</tspan> 6</text>
</g>
<g id="model_7">
<line x1="26.0" y1="982.0" x2="1458.0" y2="982.0" stroke="#f0f2f5" stroke-width="1"/>
<rect x="26.0" y="1000.0" width="11" height="11" rx="3" fill="#3b88a0"/>
<text x="46.0" y="1010.0" font-size="15" fill="#11161f" font-weight="700">Model 8</text>
<text x="26.0" y="1032.0" font-size="12" fill="#686f7b">seed 49 · kernel 3×3 · 981 k params</text>
<text x="26.0" y="1050.0" font-size="12" fill="#94a3b8">channels 32-64-128-256-256</text>
<text x="357.0" y="1026.0" font-size="10.5" fill="#94a3b8" text-anchor="middle">3×128²</text>
<rect x="326.0" y="1036.0" width="62.0" height="20" rx="5" fill="#ffffff" stroke="#c3cad3" stroke-width="1.2"/>
<line x1="394.0" y1="1036.0" x2="438.0" y2="1036.0" stroke="#8b93a0" stroke-width="1.5" marker-end="url(#tipgrey)"/>
<text x="416.0" y="1028.0" font-size="10.5" fill="#94a3b8" text-anchor="middle">×½</text>
<rect x="444.0" y="1029.0" width="104.0" height="27.0" rx="7" fill="url(#k3)"/>
<text x="496.0" y="1047.5" font-size="14" fill="#ffffff" font-weight="700" text-anchor="middle">32</text>
<line x1="496.0" y1="1062.0" x2="496.0" y2="1074.0" stroke="#b6bec8" stroke-width="1" stroke-dasharray="3 2.5"/>
<text x="496.0" y="1086.0" font-size="9.5" fill="#94a3b8" text-anchor="middle">dec L0</text>
<line x1="554.0" y1="1036.0" x2="598.0" y2="1036.0" stroke="#8b93a0" stroke-width="1.5" marker-end="url(#tipgrey)"/>
<text x="576.0" y="1028.0" font-size="10.5" fill="#94a3b8" text-anchor="middle">×½</text>
<rect x="604.0" y="1022.0" width="104.0" height="34.0" rx="7" fill="url(#k3)"/>
<text x="656.0" y="1044.0" font-size="14" fill="#ffffff" font-weight="700" text-anchor="middle">64</text>
<line x1="656.0" y1="1062.0" x2="656.0" y2="1074.0" stroke="#b6bec8" stroke-width="1" stroke-dasharray="3 2.5"/>
<text x="656.0" y="1086.0" font-size="9.5" fill="#94a3b8" text-anchor="middle">dec L1</text>
<line x1="714.0" y1="1036.0" x2="758.0" y2="1036.0" stroke="#8b93a0" stroke-width="1.5" marker-end="url(#tipgrey)"/>
<text x="736.0" y="1028.0" font-size="10.5" fill="#94a3b8" text-anchor="middle">×½</text>
<rect x="764.0" y="1008.0" width="104.0" height="48.0" rx="7" fill="url(#k3)"/>
<text x="816.0" y="1037.0" font-size="14" fill="#ffffff" font-weight="700" text-anchor="middle">128</text>
<line x1="816.0" y1="1062.0" x2="816.0" y2="1074.0" stroke="#b6bec8" stroke-width="1" stroke-dasharray="3 2.5"/>
<text x="816.0" y="1086.0" font-size="9.5" fill="#94a3b8" text-anchor="middle">dec L2</text>
<line x1="874.0" y1="1036.0" x2="918.0" y2="1036.0" stroke="#8b93a0" stroke-width="1.5" marker-end="url(#tipgrey)"/>
<text x="896.0" y="1028.0" font-size="10.5" fill="#94a3b8" text-anchor="middle">×½</text>
<rect x="924.0" y="980.0" width="104.0" height="76.0" rx="7" fill="url(#k3)"/>
<text x="976.0" y="1023.0" font-size="14" fill="#ffffff" font-weight="700" text-anchor="middle">256</text>
<line x1="976.0" y1="1062.0" x2="976.0" y2="1074.0" stroke="#b6bec8" stroke-width="1" stroke-dasharray="3 2.5"/>
<text x="976.0" y="1086.0" font-size="9.5" fill="#94a3b8" text-anchor="middle">dec L3</text>
<line x1="1034.0" y1="1036.0" x2="1078.0" y2="1036.0" stroke="#8b93a0" stroke-width="1.5" marker-end="url(#tipgrey)"/>
<rect x="1084.0" y="980.0" width="104.0" height="76.0" rx="7" fill="url(#k3)"/>
<text x="1136.0" y="1023.0" font-size="14" fill="#ffffff" font-weight="700" text-anchor="middle">256</text>
<line x1="1136.0" y1="1062.0" x2="1136.0" y2="1074.0" stroke="#b6bec8" stroke-width="1" stroke-dasharray="3 2.5"/>
<text x="1136.0" y="1086.0" font-size="9.5" fill="#94a3b8" text-anchor="middle">dec L4</text>
<line x1="1194.0" y1="1036.0" x2="1246.0" y2="1036.0" stroke="#8b93a0" stroke-width="1.5" marker-end="url(#tipgrey)"/>
<circle cx="1266.0" cy="1036.0" r="16" fill="#ffffff" stroke="#a7b0bd" stroke-width="1.2"/>
<text x="1266.0" y="1040.0" font-size="10" fill="#686f7b" text-anchor="middle">GAP</text>
<line x1="1282.0" y1="1036.0" x2="1310.0" y2="1022.5" stroke="#c3cad3" stroke-width="1"/>
<rect x="1310.0" y="1012.0" width="148.0" height="21" rx="6" fill="#ffffff" stroke="#cbd5e1" stroke-width="1"/>
<text x="1353.9" y="1026.5" font-size="11" fill="#686f7b">gender <tspan font-family="'DejaVu Sans', 'Noto Sans Math', 'Segoe UI Symbol', 'Nimbus Sans', sans-serif">→</tspan> 2</text>
<line x1="1282.0" y1="1036.0" x2="1310.0" y2="1049.5" stroke="#c3cad3" stroke-width="1"/>
<rect x="1310.0" y="1039.0" width="148.0" height="21" rx="6" fill="#ffffff" stroke="#cbd5e1" stroke-width="1"/>
<text x="1356.8" y="1053.5" font-size="11" fill="#686f7b">attrs <tspan font-family="'DejaVu Sans', 'Noto Sans Math', 'Segoe UI Symbol', 'Nimbus Sans', sans-serif">→</tspan> 6</text>
</g>
<g id="model_8">
<line x1="26.0" y1="1104.0" x2="1458.0" y2="1104.0" stroke="#f0f2f5" stroke-width="1"/>
<rect x="26.0" y="1122.0" width="11" height="11" rx="3" fill="#3b88a0"/>
<text x="46.0" y="1132.0" font-size="15" fill="#11161f" font-weight="700">Model 9</text>
<text x="26.0" y="1154.0" font-size="12" fill="#686f7b">seed 50 · kernel 3×3 · 981 k params</text>
<text x="26.0" y="1172.0" font-size="12" fill="#94a3b8">channels 32-64-128-256-256</text>
<text x="357.0" y="1148.0" font-size="10.5" fill="#94a3b8" text-anchor="middle">3×128²</text>
<rect x="326.0" y="1158.0" width="62.0" height="20" rx="5" fill="#ffffff" stroke="#c3cad3" stroke-width="1.2"/>
<line x1="394.0" y1="1158.0" x2="438.0" y2="1158.0" stroke="#8b93a0" stroke-width="1.5" marker-end="url(#tipgrey)"/>
<text x="416.0" y="1150.0" font-size="10.5" fill="#94a3b8" text-anchor="middle">×½</text>
<rect x="444.0" y="1151.0" width="104.0" height="27.0" rx="7" fill="url(#k3)"/>
<text x="496.0" y="1169.5" font-size="14" fill="#ffffff" font-weight="700" text-anchor="middle">32</text>
<line x1="496.0" y1="1184.0" x2="496.0" y2="1196.0" stroke="#b6bec8" stroke-width="1" stroke-dasharray="3 2.5"/>
<text x="496.0" y="1208.0" font-size="9.5" fill="#94a3b8" text-anchor="middle">dec L0</text>
<line x1="554.0" y1="1158.0" x2="598.0" y2="1158.0" stroke="#8b93a0" stroke-width="1.5" marker-end="url(#tipgrey)"/>
<text x="576.0" y="1150.0" font-size="10.5" fill="#94a3b8" text-anchor="middle">×½</text>
<rect x="604.0" y="1144.0" width="104.0" height="34.0" rx="7" fill="url(#k3)"/>
<text x="656.0" y="1166.0" font-size="14" fill="#ffffff" font-weight="700" text-anchor="middle">64</text>
<line x1="656.0" y1="1184.0" x2="656.0" y2="1196.0" stroke="#b6bec8" stroke-width="1" stroke-dasharray="3 2.5"/>
<text x="656.0" y="1208.0" font-size="9.5" fill="#94a3b8" text-anchor="middle">dec L1</text>
<line x1="714.0" y1="1158.0" x2="758.0" y2="1158.0" stroke="#8b93a0" stroke-width="1.5" marker-end="url(#tipgrey)"/>
<text x="736.0" y="1150.0" font-size="10.5" fill="#94a3b8" text-anchor="middle">×½</text>
<rect x="764.0" y="1130.0" width="104.0" height="48.0" rx="7" fill="url(#k3)"/>
<text x="816.0" y="1159.0" font-size="14" fill="#ffffff" font-weight="700" text-anchor="middle">128</text>
<line x1="816.0" y1="1184.0" x2="816.0" y2="1196.0" stroke="#b6bec8" stroke-width="1" stroke-dasharray="3 2.5"/>
<text x="816.0" y="1208.0" font-size="9.5" fill="#94a3b8" text-anchor="middle">dec L2</text>
<line x1="874.0" y1="1158.0" x2="918.0" y2="1158.0" stroke="#8b93a0" stroke-width="1.5" marker-end="url(#tipgrey)"/>
<text x="896.0" y="1150.0" font-size="10.5" fill="#94a3b8" text-anchor="middle">×½</text>
<rect x="924.0" y="1102.0" width="104.0" height="76.0" rx="7" fill="url(#k3)"/>
<text x="976.0" y="1145.0" font-size="14" fill="#ffffff" font-weight="700" text-anchor="middle">256</text>
<line x1="976.0" y1="1184.0" x2="976.0" y2="1196.0" stroke="#b6bec8" stroke-width="1" stroke-dasharray="3 2.5"/>
<text x="976.0" y="1208.0" font-size="9.5" fill="#94a3b8" text-anchor="middle">dec L3</text>
<line x1="1034.0" y1="1158.0" x2="1078.0" y2="1158.0" stroke="#8b93a0" stroke-width="1.5" marker-end="url(#tipgrey)"/>
<rect x="1084.0" y="1102.0" width="104.0" height="76.0" rx="7" fill="url(#k3)"/>
<text x="1136.0" y="1145.0" font-size="14" fill="#ffffff" font-weight="700" text-anchor="middle">256</text>
<line x1="1136.0" y1="1184.0" x2="1136.0" y2="1196.0" stroke="#b6bec8" stroke-width="1" stroke-dasharray="3 2.5"/>
<text x="1136.0" y="1208.0" font-size="9.5" fill="#94a3b8" text-anchor="middle">dec L4</text>
<line x1="1194.0" y1="1158.0" x2="1246.0" y2="1158.0" stroke="#8b93a0" stroke-width="1.5" marker-end="url(#tipgrey)"/>
<circle cx="1266.0" cy="1158.0" r="16" fill="#ffffff" stroke="#a7b0bd" stroke-width="1.2"/>
<text x="1266.0" y="1162.0" font-size="10" fill="#686f7b" text-anchor="middle">GAP</text>
<line x1="1282.0" y1="1158.0" x2="1310.0" y2="1144.5" stroke="#c3cad3" stroke-width="1"/>
<rect x="1310.0" y="1134.0" width="148.0" height="21" rx="6" fill="#ffffff" stroke="#cbd5e1" stroke-width="1"/>
<text x="1353.9" y="1148.5" font-size="11" fill="#686f7b">gender <tspan font-family="'DejaVu Sans', 'Noto Sans Math', 'Segoe UI Symbol', 'Nimbus Sans', sans-serif">→</tspan> 2</text>
<line x1="1282.0" y1="1158.0" x2="1310.0" y2="1171.5" stroke="#c3cad3" stroke-width="1"/>
<rect x="1310.0" y="1161.0" width="148.0" height="21" rx="6" fill="#ffffff" stroke="#cbd5e1" stroke-width="1"/>
<text x="1356.8" y="1175.5" font-size="11" fill="#686f7b">attrs <tspan font-family="'DejaVu Sans', 'Noto Sans Math', 'Segoe UI Symbol', 'Nimbus Sans', sans-serif">→</tspan> 6</text>
</g>
<g id="model_9">
<line x1="26.0" y1="1226.0" x2="1458.0" y2="1226.0" stroke="#f0f2f5" stroke-width="1"/>
<rect x="26.0" y="1244.0" width="11" height="11" rx="3" fill="#3b88a0"/>
<text x="46.0" y="1254.0" font-size="15" fill="#11161f" font-weight="700">Model 10</text>
<text x="26.0" y="1276.0" font-size="12" fill="#686f7b">seed 51 · kernel 3×3 · 981 k params</text>
<text x="26.0" y="1294.0" font-size="12" fill="#94a3b8">channels 32-64-128-256-256</text>
<text x="357.0" y="1270.0" font-size="10.5" fill="#94a3b8" text-anchor="middle">3×128²</text>
<rect x="326.0" y="1280.0" width="62.0" height="20" rx="5" fill="#ffffff" stroke="#c3cad3" stroke-width="1.2"/>
<line x1="394.0" y1="1280.0" x2="438.0" y2="1280.0" stroke="#8b93a0" stroke-width="1.5" marker-end="url(#tipgrey)"/>
<text x="416.0" y="1272.0" font-size="10.5" fill="#94a3b8" text-anchor="middle">×½</text>
<rect x="444.0" y="1273.0" width="104.0" height="27.0" rx="7" fill="url(#k3)"/>
<text x="496.0" y="1291.5" font-size="14" fill="#ffffff" font-weight="700" text-anchor="middle">32</text>
<line x1="496.0" y1="1306.0" x2="496.0" y2="1318.0" stroke="#b6bec8" stroke-width="1" stroke-dasharray="3 2.5"/>
<text x="496.0" y="1330.0" font-size="9.5" fill="#94a3b8" text-anchor="middle">dec L0</text>
<line x1="554.0" y1="1280.0" x2="598.0" y2="1280.0" stroke="#8b93a0" stroke-width="1.5" marker-end="url(#tipgrey)"/>
<text x="576.0" y="1272.0" font-size="10.5" fill="#94a3b8" text-anchor="middle">×½</text>
<rect x="604.0" y="1266.0" width="104.0" height="34.0" rx="7" fill="url(#k3)"/>
<text x="656.0" y="1288.0" font-size="14" fill="#ffffff" font-weight="700" text-anchor="middle">64</text>
<line x1="656.0" y1="1306.0" x2="656.0" y2="1318.0" stroke="#b6bec8" stroke-width="1" stroke-dasharray="3 2.5"/>
<text x="656.0" y="1330.0" font-size="9.5" fill="#94a3b8" text-anchor="middle">dec L1</text>
<line x1="714.0" y1="1280.0" x2="758.0" y2="1280.0" stroke="#8b93a0" stroke-width="1.5" marker-end="url(#tipgrey)"/>
<text x="736.0" y="1272.0" font-size="10.5" fill="#94a3b8" text-anchor="middle">×½</text>
<rect x="764.0" y="1252.0" width="104.0" height="48.0" rx="7" fill="url(#k3)"/>
<text x="816.0" y="1281.0" font-size="14" fill="#ffffff" font-weight="700" text-anchor="middle">128</text>
<line x1="816.0" y1="1306.0" x2="816.0" y2="1318.0" stroke="#b6bec8" stroke-width="1" stroke-dasharray="3 2.5"/>
<text x="816.0" y="1330.0" font-size="9.5" fill="#94a3b8" text-anchor="middle">dec L2</text>
<line x1="874.0" y1="1280.0" x2="918.0" y2="1280.0" stroke="#8b93a0" stroke-width="1.5" marker-end="url(#tipgrey)"/>
<text x="896.0" y="1272.0" font-size="10.5" fill="#94a3b8" text-anchor="middle">×½</text>
<rect x="924.0" y="1224.0" width="104.0" height="76.0" rx="7" fill="url(#k3)"/>
<text x="976.0" y="1267.0" font-size="14" fill="#ffffff" font-weight="700" text-anchor="middle">256</text>
<line x1="976.0" y1="1306.0" x2="976.0" y2="1318.0" stroke="#b6bec8" stroke-width="1" stroke-dasharray="3 2.5"/>
<text x="976.0" y="1330.0" font-size="9.5" fill="#94a3b8" text-anchor="middle">dec L3</text>
<line x1="1034.0" y1="1280.0" x2="1078.0" y2="1280.0" stroke="#8b93a0" stroke-width="1.5" marker-end="url(#tipgrey)"/>
<rect x="1084.0" y="1224.0" width="104.0" height="76.0" rx="7" fill="url(#k3)"/>
<text x="1136.0" y="1267.0" font-size="14" fill="#ffffff" font-weight="700" text-anchor="middle">256</text>
<line x1="1136.0" y1="1306.0" x2="1136.0" y2="1318.0" stroke="#b6bec8" stroke-width="1" stroke-dasharray="3 2.5"/>
<text x="1136.0" y="1330.0" font-size="9.5" fill="#94a3b8" text-anchor="middle">dec L4</text>
<line x1="1194.0" y1="1280.0" x2="1246.0" y2="1280.0" stroke="#8b93a0" stroke-width="1.5" marker-end="url(#tipgrey)"/>
<circle cx="1266.0" cy="1280.0" r="16" fill="#ffffff" stroke="#a7b0bd" stroke-width="1.2"/>
<text x="1266.0" y="1284.0" font-size="10" fill="#686f7b" text-anchor="middle">GAP</text>
<line x1="1282.0" y1="1280.0" x2="1310.0" y2="1266.5" stroke="#c3cad3" stroke-width="1"/>
<rect x="1310.0" y="1256.0" width="148.0" height="21" rx="6" fill="#ffffff" stroke="#cbd5e1" stroke-width="1"/>
<text x="1353.9" y="1270.5" font-size="11" fill="#686f7b">gender <tspan font-family="'DejaVu Sans', 'Noto Sans Math', 'Segoe UI Symbol', 'Nimbus Sans', sans-serif">→</tspan> 2</text>
<line x1="1282.0" y1="1280.0" x2="1310.0" y2="1293.5" stroke="#c3cad3" stroke-width="1"/>
<rect x="1310.0" y="1283.0" width="148.0" height="21" rx="6" fill="#ffffff" stroke="#cbd5e1" stroke-width="1"/>
<text x="1356.8" y="1297.5" font-size="11" fill="#686f7b">attrs <tspan font-family="'DejaVu Sans', 'Noto Sans Math', 'Segoe UI Symbol', 'Nimbus Sans', sans-serif">→</tspan> 6</text>
</g>
<rect x="26.0" y="1377.0" width="13" height="13" rx="4" fill="url(#k3)"/>
<text x="46.0" y="1388.0" font-size="12" fill="#686f7b">kernel 3×3</text>
<rect x="145.6" y="1377.0" width="13" height="13" rx="4" fill="url(#k5)"/>
<text x="165.6" y="1388.0" font-size="12" fill="#686f7b">kernel 5×5</text>
<rect x="265.3" y="1380.0" width="13" height="7" rx="1" fill="none" stroke="#b6bec8" stroke-width="1" stroke-dasharray="3 2.5"/>
<text x="285.3" y="1388.0" font-size="12" fill="#686f7b">decoder tap</text>
<text x="26.0" y="1414.0" font-size="12" fill="#94a3b8">dec Lk: frozen-trunk BlockDecoder (ConvTranspose 4×4 stride-2 stages + BN + ReLU) reconstructing the 128² input from block k — the reconstructions drive the ensemble bias/variance decomposition.</text>
</svg>