<svg xmlns="http://www.w3.org/2000/svg" width="1746" height="1074" viewBox="0 0 1746 1074" font-family="'Segoe UI', Roboto, 'Helvetica Neue', Helvetica, Arial, 'Liberation Sans', 'Noto Sans', 'DejaVu Sans', sans-serif">
<title>LRAD — per-block decoder stack</title>
<defs><marker id="tip" viewBox="0 0 10 10" refX="8" refY="5" markerWidth="6" markerHeight="6" orient="auto-start-reverse"><path d="M0,1 L9,5 L0,9 z" fill="#11161f"/></marker><marker id="tipgrey" viewBox="0 0 10 10" refX="8" refY="5" markerWidth="6" markerHeight="6" orient="auto-start-reverse"><path d="M0,1 L9,5 L0,9 z" fill="#8b93a0"/></marker><filter id="soft" x="-8%" y="-20%" width="116%" height="150%"><feDropShadow dx="0" dy="1.5" stdDeviation="2.2" flood-color="#5b6675" flood-opacity="0.13"/></filter></defs>
<rect width="1746" height="1074" fill="#ffffff"/>
<text x="56.0" y="44.0" font-size="12" fill="#686f7b" font-weight="700" letter-spacing="1">INPUT ACTIVATION</text>
<text x="310.0" y="34.0" font-size="12.5" fill="#686f7b">Decoder stages  ·  ConvTranspose2d(4×4, stride 2, pad 1) <tspan font-family="'DejaVu Sans', 'Noto Sans Math', 'Segoe UI Symbol', 'Nimbus Sans', sans-serif">→</tspan> BN <tspan font-family="'DejaVu Sans', 'Noto Sans Math', 'Segoe UI Symbol', 'Nimbus Sans', sans-serif">→</tspan> ReLU — channels halve each stage,</text>
<text x="310.0" y="52.0" font-size="12.5" fill="#686f7b">floor 16</text>
<text x="1256.0" y="44.0" font-size="12" fill="#686f7b" font-weight="700" letter-spacing="1">HEAD</text>
<text x="1500.0" y="44.0" font-size="12" fill="#686f7b" font-weight="700" letter-spacing="1">OUTPUT</text>
<line x1="56.0" y1="92.0" x2="1690.0" y2="92.0" stroke="#d4d8de" stroke-width="1.4"/>
<rect x="56.0" y="118.0" width="220.0" height="150.0" rx="16" fill="#ffffff" stroke="#e1e5ea" stroke-width="1.2" filter="url(#soft)"/>
<rect x="76.0" y="136.0" width="53.8" height="20" rx="10" fill="#d9eafc"/><text x="87.0" y="149.4" font-size="9.5" fill="#004e90" font-weight="700" letter-spacing="0.9">INPUT</text>
<text x="76.0" y="186.0" font-size="15" fill="#11161f" font-weight="700">a<tspan dy="2.70" font-size="10.8">0</tspan><tspan dy="-2.70"> — block 1</tspan></text>
<text x="76.0" y="208.0" font-size="12.5" fill="#686f7b">32 × 64 × 64</text>
<text x="76.0" y="228.0" font-size="12.5" fill="#686f7b">n_up = log<tspan dy="2.25" font-size="9.0">2</tspan><tspan dy="-2.25">(128/64) = 1</tspan></text>
<rect x="310.0" y="118.0" width="196.0" height="150.0" rx="16" fill="#ffffff" stroke="#e1e5ea" stroke-width="1.2" filter="url(#soft)"/>
<rect x="328.0" y="136.0" width="47.5" height="20" rx="10" fill="#cbedea"/><text x="339.0" y="149.4" font-size="9.5" fill="#004c49" font-weight="700" letter-spacing="0.9">CONV</text>
<text x="328.0" y="186.0" font-size="14.5" fill="#11161f" font-weight="700">ConvT 32<tspan font-family="'DejaVu Sans', 'Noto Sans Math', 'Segoe UI Symbol', 'Nimbus Sans', sans-serif">→</tspan>16</text>
<text x="328.0" y="210.0" font-size="12.5" fill="#686f7b">16 × 128 × 128</text>
<text x="328.0" y="232.0" font-size="12.5" fill="#686f7b">BN + ReLU</text>
<line x1="282.0" y1="193.0" x2="304.0" y2="193.0" stroke="#11161f" stroke-width="2.2" marker-end="url(#tip)"/>
<line x1="514.0" y1="193.0" x2="1248.0" y2="193.0" stroke="#8b93a0" stroke-width="1.8" stroke-dasharray="6 5" marker-end="url(#tipgrey)"/>
<rect x="1256.0" y="118.0" width="210.0" height="150.0" rx="16" fill="#ffffff" stroke="#e1e5ea" stroke-width="1.2" filter="url(#soft)"/>
<rect x="1276.0" y="136.0" width="47.5" height="20" rx="10" fill="#ebe3fc"/><text x="1287.0" y="149.4" font-size="9.5" fill="#5b21b6" font-weight="700" letter-spacing="0.9">HEAD</text>
<text x="1276.0" y="186.0" font-size="14.5" fill="#11161f" font-weight="700">Conv 1×1 <tspan font-family="'DejaVu Sans', 'Noto Sans Math', 'Segoe UI Symbol', 'Nimbus Sans', sans-serif">→</tspan> 3</text>
<text x="1276.0" y="210.0" font-size="12.5" fill="#686f7b">Sigmoid</text>
<text x="1276.0" y="232.0" font-size="12.5" fill="#686f7b">output <tspan font-family="'DejaVu Sans', 'Noto Sans Math', 'Segoe UI Symbol', 'Nimbus Sans', sans-serif">∈</tspan> [0,1]</text>
<line x1="1472.0" y1="193.0" x2="1494.0" y2="193.0" stroke="#11161f" stroke-width="2.2" marker-end="url(#tip)"/>
<rect x="1500.0" y="118.0" width="190.0" height="150.0" rx="16" fill="#ffffff" stroke="#e1e5ea" stroke-width="1.2" filter="url(#soft)"/>
<rect x="1518.0" y="136.0" width="60.2" height="20" rx="10" fill="#ffe4da"/><text x="1529.0" y="149.4" font-size="9.5" fill="#a53a12" font-weight="700" letter-spacing="0.9">OUTPUT</text>
<text x="1518.0" y="188.0" font-size="16" fill="#11161f" font-weight="700">f<tspan dy="2.88" font-size="11.5">0</tspan><tspan dy="-2.88">(x)</tspan></text>
<path d="M1519.4,176.5 L1522.6,172.6 L1525.8,176.5" fill="none" stroke="#11161f" stroke-width="1.6" stroke-linecap="round" stroke-linejoin="round"/>
<text x="1518.0" y="212.0" font-size="12.5" fill="#686f7b">3×128×128</text>
<text x="1518.0" y="234.0" font-size="12.5" fill="#94a3b8">8,275 par.</text>
<rect x="56.0" y="290.0" width="220.0" height="150.0" rx="16" fill="#ffffff" stroke="#e1e5ea" stroke-width="1.2" filter="url(#soft)"/>
<rect x="76.0" y="308.0" width="53.8" height="20" rx="10" fill="#d9eafc"/><text x="87.0" y="321.4" font-size="9.5" fill="#004e90" font-weight="700" letter-spacing="0.9">INPUT</text>
<text x="76.0" y="358.0" font-size="15" fill="#11161f" font-weight="700">a<tspan dy="2.70" font-size="10.8">1</tspan><tspan dy="-2.70"> — block 2</tspan></text>
<text x="76.0" y="380.0" font-size="12.5" fill="#686f7b">64 × 32 × 32</text>
<text x="76.0" y="400.0" font-size="12.5" fill="#686f7b">n_up = 2</text>
<rect x="310.0" y="290.0" width="196.0" height="150.0" rx="16" fill="#ffffff" stroke="#e1e5ea" stroke-width="1.2" filter="url(#soft)"/>
<rect x="328.0" y="308.0" width="47.5" height="20" rx="10" fill="#cbedea"/><text x="339.0" y="321.4" font-size="9.5" fill="#004c49" font-weight="700" letter-spacing="0.9">CONV</text>
<text x="328.0" y="358.0" font-size="14.5" fill="#11161f" font-weight="700">ConvT 64<tspan font-family="'DejaVu Sans', 'Noto Sans Math', 'Segoe UI Symbol', 'Nimbus Sans', sans-serif">→</tspan>32</text>
<text x="328.0" y="382.0" font-size="12.5" fill="#686f7b">32 × 64 × 64</text>
<text x="328.0" y="404.0" font-size="12.5" fill="#686f7b">BN + ReLU</text>
<line x1="282.0" y1="365.0" x2="304.0" y2="365.0" stroke="#11161f" stroke-width="2.2" marker-end="url(#tip)"/>
<rect x="540.0" y="290.0" width="196.0" height="150.0" rx="16" fill="#ffffff" stroke="#e1e5ea" stroke-width="1.2" filter="url(#soft)"/>
<rect x="558.0" y="308.0" width="47.5" height="20" rx="10" fill="#cbedea"/><text x="569.0" y="321.4" font-size="9.5" fill="#004c49" font-weight="700" letter-spacing="0.9">CONV</text>
<text x="558.0" y="358.0" font-size="14.5" fill="#11161f" font-weight="700">ConvT 32<tspan font-family="'DejaVu Sans', 'Noto Sans Math', 'Segoe UI Symbol', 'Nimbus Sans', sans-serif">→</tspan>16</text>
<text x="558.0" y="382.0" font-size="12.5" fill="#686f7b">16 × 128 × 128</text>
<text x="558.0" y="404.0" font-size="12.5" fill="#686f7b">BN + ReLU</text>
<line x1="512.0" y1="365.0" x2="534.0" y2="365.0" stroke="#11161f" stroke-width="2.2" marker-end="url(#tip)"/>
<line x1="744.0" y1="365.0" x2="1248.0" y2="365.0" stroke="#8b93a0" stroke-width="1.8" stroke-dasharray="6 5" marker-end="url(#tipgrey)"/>
<rect x="1256.0" y="290.0" width="210.0" height="150.0" rx="16" fill="#ffffff" stroke="#e1e5ea" stroke-width="1.2" filter="url(#soft)"/>
<rect x="1276.0" y="308.0" width="47.5" height="20" rx="10" fill="#ebe3fc"/><text x="1287.0" y="321.4" font-size="9.5" fill="#5b21b6" font-weight="700" letter-spacing="0.9">HEAD</text>
<text x="1276.0" y="358.0" font-size="14.5" fill="#11161f" font-weight="700">Conv 1×1 <tspan font-family="'DejaVu Sans', 'Noto Sans Math', 'Segoe UI Symbol', 'Nimbus Sans', sans-serif">→</tspan> 3</text>
<text x="1276.0" y="382.0" font-size="12.5" fill="#686f7b">Sigmoid</text>
<line x1="1472.0" y1="365.0" x2="1494.0" y2="365.0" stroke="#11161f" stroke-width="2.2" marker-end="url(#tip)"/>
<rect x="1500.0" y="290.0" width="190.0" height="150.0" rx="16" fill="#ffffff" stroke="#e1e5ea" stroke-width="1.2" filter="url(#soft)"/>
<rect x="1518.0" y="308.0" width="60.2" height="20" rx="10" fill="#ffe4da"/><text x="1529.0" y="321.4" font-size="9.5" fill="#a53a12" font-weight="700" letter-spacing="0.9">OUTPUT</text>
<text x="1518.0" y="360.0" font-size="16" fill="#11161f" font-weight="700">f<tspan dy="2.88" font-size="11.5">1</tspan><tspan dy="-2.88">(x)</tspan></text>
<path d="M1519.4,348.5 L1522.6,344.6 L1525.8,348.5" fill="none" stroke="#11161f" stroke-width="1.6" stroke-linecap="round" stroke-linejoin="round"/>
<text x="1518.0" y="384.0" font-size="12.5" fill="#686f7b">3×128×128</text>
<text x="1518.0" y="406.0" font-size="12.5" fill="#94a3b8">41,107 par.</text>
<rect x="56.0" y="462.0" width="220.0" height="150.0" rx="16" fill="#ffffff" stroke="#e1e5ea" stroke-width="1.2" filter="url(#soft)"/>
<rect x="76.0" y="480.0" width="53.8" height="20" rx="10" fill="#d9eafc"/><text x="87.0" y="493.4" font-size="9.5" fill="#004e90" font-weight="700" letter-spacing="0.9">INPUT</text>
<text x="76.0" y="530.0" font-size="15" fill="#11161f" font-weight="700">a<tspan dy="2.70" font-size="10.8">2</tspan><tspan dy="-2.70"> — block 3</tspan></text>
<text x="76.0" y="552.0" font-size="12.5" fill="#686f7b">128 × 16 × 16</text>
<text x="76.0" y="572.0" font-size="12.5" fill="#686f7b">n_up = 3</text>
<rect x="310.0" y="462.0" width="196.0" height="150.0" rx="16" fill="#ffffff" stroke="#e1e5ea" stroke-width="1.2" filter="url(#soft)"/>
<rect x="328.0" y="480.0" width="47.5" height="20" rx="10" fill="#cbedea"/><text x="339.0" y="493.4" font-size="9.5" fill="#004c49" font-weight="700" letter-spacing="0.9">CONV</text>
<text x="328.0" y="530.0" font-size="14.5" fill="#11161f" font-weight="700">ConvT 128<tspan font-family="'DejaVu Sans', 'Noto Sans Math', 'Segoe UI Symbol', 'Nimbus Sans', sans-serif">→</tspan>64</text>
<text x="328.0" y="554.0" font-size="12.5" fill="#686f7b">64 × 32 × 32</text>
<text x="328.0" y="576.0" font-size="12.5" fill="#686f7b">BN + ReLU</text>
<line x1="282.0" y1="537.0" x2="304.0" y2="537.0" stroke="#11161f" stroke-width="2.2" marker-end="url(#tip)"/>
<rect x="540.0" y="462.0" width="196.0" height="150.0" rx="16" fill="#ffffff" stroke="#e1e5ea" stroke-width="1.2" filter="url(#soft)"/>
<rect x="558.0" y="480.0" width="47.5" height="20" rx="10" fill="#cbedea"/><text x="569.0" y="493.4" font-size="9.5" fill="#004c49" font-weight="700" letter-spacing="0.9">CONV</text>
<text x="558.0" y="530.0" font-size="14.5" fill="#11161f" font-weight="700">ConvT 64<tspan font-family="'DejaVu Sans', 'Noto Sans Math', 'Segoe UI Symbol', 'Nimbus Sans', sans-serif">→</tspan>32</text>
<text x="558.0" y="554.0" font-size="12.5" fill="#686f7b">32 × 64 × 64</text>
<text x="558.0" y="576.0" font-size="12.5" fill="#686f7b">BN + ReLU</text>
<line x1="512.0" y1="537.0" x2="534.0" y2="537.0" stroke="#11161f" stroke-width="2.2" marker-end="url(#tip)"/>
<rect x="770.0" y="462.0" width="196.0" height="150.0" rx="16" fill="#ffffff" stroke="#e1e5ea" stroke-width="1.2" filter="url(#soft)"/>
<rect x="788.0" y="480.0" width="47.5" height="20" rx="10" fill="#cbedea"/><text x="799.0" y="493.4" font-size="9.5" fill="#004c49" font-weight="700" letter-spacing="0.9">CONV</text>
<text x="788.0" y="530.0" font-size="14.5" fill="#11161f" font-weight="700">ConvT 32<tspan font-family="'DejaVu Sans', 'Noto Sans Math', 'Segoe UI Symbol', 'Nimbus Sans', sans-serif">→</tspan>16</text>
<text x="788.0" y="554.0" font-size="12.5" fill="#686f7b">16 × 128 × 128</text>
<text x="788.0" y="576.0" font-size="12.5" fill="#686f7b">BN + ReLU</text>
<line x1="742.0" y1="537.0" x2="764.0" y2="537.0" stroke="#11161f" stroke-width="2.2" marker-end="url(#tip)"/>
<line x1="974.0" y1="537.0" x2="1248.0" y2="537.0" stroke="#8b93a0" stroke-width="1.8" stroke-dasharray="6 5" marker-end="url(#tipgrey)"/>
<rect x="1256.0" y="462.0" width="210.0" height="150.0" rx="16" fill="#ffffff" stroke="#e1e5ea" stroke-width="1.2" filter="url(#soft)"/>
<rect x="1276.0" y="480.0" width="47.5" height="20" rx="10" fill="#ebe3fc"/><text x="1287.0" y="493.4" font-size="9.5" fill="#5b21b6" font-weight="700" letter-spacing="0.9">HEAD</text>
<text x="1276.0" y="530.0" font-size="14.5" fill="#11161f" font-weight="700">Conv 1×1 <tspan font-family="'DejaVu Sans', 'Noto Sans Math', 'Segoe UI Symbol', 'Nimbus Sans', sans-serif">→</tspan> 3</text>
<text x="1276.0" y="554.0" font-size="12.5" fill="#686f7b">Sigmoid</text>
<line x1="1472.0" y1="537.0" x2="1494.0" y2="537.0" stroke="#11161f" stroke-width="2.2" marker-end="url(#tip)"/>
<rect x="1500.0" y="462.0" width="190.0" height="150.0" rx="16" fill="#ffffff" stroke="#e1e5ea" stroke-width="1.2" filter="url(#soft)"/>
<rect x="1518.0" y="480.0" width="60.2" height="20" rx="10" fill="#ffe4da"/><text x="1529.0" y="493.4" font-size="9.5" fill="#a53a12" font-weight="700" letter-spacing="0.9">OUTPUT</text>
<text x="1518.0" y="532.0" font-size="16" fill="#11161f" font-weight="700">f<tspan dy="2.88" font-size="11.5">2</tspan><tspan dy="-2.88">(x)</tspan></text>
<path d="M1519.4,520.5 L1522.6,516.6 L1525.8,520.5" fill="none" stroke="#11161f" stroke-width="1.6" stroke-linecap="round" stroke-linejoin="round"/>
<text x="1518.0" y="556.0" font-size="12.5" fill="#686f7b">3×128×128</text>
<text x="1518.0" y="578.0" font-size="12.5" fill="#94a3b8">172,307 par.</text>
<rect x="56.0" y="634.0" width="220.0" height="150.0" rx="16" fill="#ffffff" stroke="#e1e5ea" stroke-width="1.2" filter="url(#soft)"/>
<rect x="76.0" y="652.0" width="53.8" height="20" rx="10" fill="#d9eafc"/><text x="87.0" y="665.4" font-size="9.5" fill="#004e90" font-weight="700" letter-spacing="0.9">INPUT</text>
<text x="76.0" y="702.0" font-size="15" fill="#11161f" font-weight="700">a<tspan dy="2.70" font-size="10.8">3</tspan><tspan dy="-2.70"> — block 4</tspan></text>
<text x="76.0" y="724.0" font-size="12.5" fill="#686f7b">256 × 8 × 8</text>
<text x="76.0" y="744.0" font-size="12.5" fill="#686f7b">n_up = 4</text>
<rect x="310.0" y="634.0" width="196.0" height="150.0" rx="16" fill="#ffffff" stroke="#e1e5ea" stroke-width="1.2" filter="url(#soft)"/>
<rect x="328.0" y="652.0" width="47.5" height="20" rx="10" fill="#cbedea"/><text x="339.0" y="665.4" font-size="9.5" fill="#004c49" font-weight="700" letter-spacing="0.9">CONV</text>
<text x="328.0" y="702.0" font-size="14.5" fill="#11161f" font-weight="700">ConvT 256<tspan font-family="'DejaVu Sans', 'Noto Sans Math', 'Segoe UI Symbol', 'Nimbus Sans', sans-serif">→</tspan>128</text>
<text x="328.0" y="726.0" font-size="12.5" fill="#686f7b">128 × 16 × 16</text>
<text x="328.0" y="748.0" font-size="12.5" fill="#686f7b">BN + ReLU</text>
<line x1="282.0" y1="709.0" x2="304.0" y2="709.0" stroke="#11161f" stroke-width="2.2" marker-end="url(#tip)"/>
<rect x="540.0" y="634.0" width="196.0" height="150.0" rx="16" fill="#ffffff" stroke="#e1e5ea" stroke-width="1.2" filter="url(#soft)"/>
<rect x="558.0" y="652.0" width="47.5" height="20" rx="10" fill="#cbedea"/><text x="569.0" y="665.4" font-size="9.5" fill="#004c49" font-weight="700" letter-spacing="0.9">CONV</text>
<text x="558.0" y="702.0" font-size="14.5" fill="#11161f" font-weight="700">ConvT 128<tspan font-family="'DejaVu Sans', 'Noto Sans Math', 'Segoe UI Symbol', 'Nimbus Sans', sans-serif">→</tspan>64</text>
<text x="558.0" y="726.0" font-size="12.5" fill="#686f7b">64 × 32 × 32</text>
<text x="558.0" y="748.0" font-size="12.5" fill="#686f7b">BN + ReLU</text>
<line x1="512.0" y1="709.0" x2="534.0" y2="709.0" stroke="#11161f" stroke-width="2.2" marker-end="url(#tip)"/>
<rect x="770.0" y="634.0" width="196.0" height="150.0" rx="16" fill="#ffffff" stroke="#e1e5ea" stroke-width="1.2" filter="url(#soft)"/>
<rect x="788.0" y="652.0" width="47.5" height="20" rx="10" fill="#cbedea"/><text x="799.0" y="665.4" font-size="9.5" fill="#004c49" font-weight="700" letter-spacing="0.9">CONV</text>
<text x="788.0" y="702.0" font-size="14.5" fill="#11161f" font-weight="700">ConvT 64<tspan font-family="'DejaVu Sans', 'Noto Sans Math', 'Segoe UI Symbol', 'Nimbus Sans', sans-serif">→</tspan>32</text>
<text x="788.0" y="726.0" font-size="12.5" fill="#686f7b">32 × 64 × 64</text>
<text x="788.0" y="748.0" font-size="12.5" fill="#686f7b">BN + ReLU</text>
<line x1="742.0" y1="709.0" x2="764.0" y2="709.0" stroke="#11161f" stroke-width="2.2" marker-end="url(#tip)"/>
<rect x="1000.0" y="634.0" width="196.0" height="150.0" rx="16" fill="#ffffff" stroke="#e1e5ea" stroke-width="1.2" filter="url(#soft)"/>
<rect x="1018.0" y="652.0" width="47.5" height="20" rx="10" fill="#cbedea"/><text x="1029.0" y="665.4" font-size="9.5" fill="#004c49" font-weight="700" letter-spacing="0.9">CONV</text>
<text x="1018.0" y="702.0" font-size="14.5" fill="#11161f" font-weight="700">ConvT 32<tspan font-family="'DejaVu Sans', 'Noto Sans Math', 'Segoe UI Symbol', 'Nimbus Sans', sans-serif">→</tspan>16</text>
<text x="1018.0" y="726.0" font-size="12.5" fill="#686f7b">16 × 128 × 128</text>
<text x="1018.0" y="748.0" font-size="12.5" fill="#686f7b">BN + ReLU</text>
<line x1="972.0" y1="709.0" x2="994.0" y2="709.0" stroke="#11161f" stroke-width="2.2" marker-end="url(#tip)"/>
<line x1="1202.0" y1="709.0" x2="1250.0" y2="709.0" stroke="#11161f" stroke-width="2.2" marker-end="url(#tip)"/>
<rect x="1256.0" y="634.0" width="210.0" height="150.0" rx="16" fill="#ffffff" stroke="#e1e5ea" stroke-width="1.2" filter="url(#soft)"/>
<rect x="1276.0" y="652.0" width="47.5" height="20" rx="10" fill="#ebe3fc"/><text x="1287.0" y="665.4" font-size="9.5" fill="#5b21b6" font-weight="700" letter-spacing="0.9">HEAD</text>
<text x="1276.0" y="702.0" font-size="14.5" fill="#11161f" font-weight="700">Conv 1×1 <tspan font-family="'DejaVu Sans', 'Noto Sans Math', 'Segoe UI Symbol', 'Nimbus Sans', sans-serif">→</tspan> 3</text>
<text x="1276.0" y="726.0" font-size="12.5" fill="#686f7b">Sigmoid</text>
<line x1="1472.0" y1="709.0" x2="1494.0" y2="709.0" stroke="#11161f" stroke-width="2.2" marker-end="url(#tip)"/>
<rect x="1500.0" y="634.0" width="190.0" height="150.0" rx="16" fill="#ffffff" stroke="#e1e5ea" stroke-width="1.2" filter="url(#soft)"/>
<rect x="1518.0" y="652.0" width="60.2" height="20" rx="10" fill="#ffe4da"/><text x="1529.0" y="665.4" font-size="9.5" fill="#a53a12" font-weight="700" letter-spacing="0.9">OUTPUT</text>
<text x="1518.0" y="704.0" font-size="16" fill="#11161f" font-weight="700">f<tspan dy="2.88" font-size="11.5">3</tspan><tspan dy="-2.88">(x)</tspan></text>
<path d="M1519.4,692.5 L1522.6,688.6 L1525.8,692.5" fill="none" stroke="#11161f" stroke-width="1.6" stroke-linecap="round" stroke-linejoin="round"/>
<text x="1518.0" y="728.0" font-size="12.5" fill="#686f7b">3×128×128</text>
<text x="1518.0" y="750.0" font-size="12.5" fill="#94a3b8">696,851 par.</text>
<rect x="56.0" y="806.0" width="220.0" height="150.0" rx="16" fill="#ffffff" stroke="#e1e5ea" stroke-width="1.2" filter="url(#soft)"/>
<rect x="76.0" y="824.0" width="53.8" height="20" rx="10" fill="#d9eafc"/><text x="87.0" y="837.4" font-size="9.5" fill="#004e90" font-weight="700" letter-spacing="0.9">INPUT</text>
<text x="76.0" y="874.0" font-size="15" fill="#11161f" font-weight="700">a<tspan dy="2.70" font-size="10.8">4</tspan><tspan dy="-2.70"> — block 5</tspan></text>
<text x="76.0" y="896.0" font-size="12.5" fill="#94a3b8">(deepest)</text>
<text x="76.0" y="916.0" font-size="12.5" fill="#686f7b">256 × 8 × 8</text>
<text x="76.0" y="936.0" font-size="12.5" fill="#686f7b">n_up = 4</text>
<rect x="310.0" y="806.0" width="196.0" height="150.0" rx="16" fill="#ffffff" stroke="#e1e5ea" stroke-width="1.2" filter="url(#soft)"/>
<rect x="328.0" y="824.0" width="47.5" height="20" rx="10" fill="#cbedea"/><text x="339.0" y="837.4" font-size="9.5" fill="#004c49" font-weight="700" letter-spacing="0.9">CONV</text>
<text x="328.0" y="874.0" font-size="14.5" fill="#11161f" font-weight="700">ConvT 256<tspan font-family="'DejaVu Sans', 'Noto Sans Math', 'Segoe UI Symbol', 'Nimbus Sans', sans-serif">→</tspan>128</text>
<text x="328.0" y="898.0" font-size="12.5" fill="#686f7b">128 × 16 × 16</text>
<text x="328.0" y="920.0" font-size="12.5" fill="#686f7b">BN + ReLU</text>
<line x1="282.0" y1="881.0" x2="304.0" y2="881.0" stroke="#11161f" stroke-width="2.2" marker-end="url(#tip)"/>
<rect x="540.0" y="806.0" width="196.0" height="150.0" rx="16" fill="#ffffff" stroke="#e1e5ea" stroke-width="1.2" filter="url(#soft)"/>
<rect x="558.0" y="824.0" width="47.5" height="20" rx="10" fill="#cbedea"/><text x="569.0" y="837.4" font-size="9.5" fill="#004c49" font-weight="700" letter-spacing="0.9">CONV</text>
<text x="558.0" y="874.0" font-size="14.5" fill="#11161f" font-weight="700">ConvT 128<tspan font-family="'DejaVu Sans', 'Noto Sans Math', 'Segoe UI Symbol', 'Nimbus Sans', sans-serif">→</tspan>64</text>
<text x="558.0" y="898.0" font-size="12.5" fill="#686f7b">64 × 32 × 32</text>
<text x="558.0" y="920.0" font-size="12.5" fill="#686f7b">BN + ReLU</text>
<line x1="512.0" y1="881.0" x2="534.0" y2="881.0" stroke="#11161f" stroke-width="2.2" marker-end="url(#tip)"/>
<rect x="770.0" y="806.0" width="196.0" height="150.0" rx="16" fill="#ffffff" stroke="#e1e5ea" stroke-width="1.2" filter="url(#soft)"/>
<rect x="788.0" y="824.0" width="47.5" height="20" rx="10" fill="#cbedea"/><text x="799.0" y="837.4" font-size="9.5" fill="#004c49" font-weight="700" letter-spacing="0.9">CONV</text>
<text x="788.0" y="874.0" font-size="14.5" fill="#11161f" font-weight="700">ConvT 64<tspan font-family="'DejaVu Sans', 'Noto Sans Math', 'Segoe UI Symbol', 'Nimbus Sans', sans-serif">→</tspan>32</text>
<text x="788.0" y="898.0" font-size="12.5" fill="#686f7b">32 × 64 × 64</text>
<text x="788.0" y="920.0" font-size="12.5" fill="#686f7b">BN + ReLU</text>
<line x1="742.0" y1="881.0" x2="764.0" y2="881.0" stroke="#11161f" stroke-width="2.2" marker-end="url(#tip)"/>
<rect x="1000.0" y="806.0" width="196.0" height="150.0" rx="16" fill="#ffffff" stroke="#e1e5ea" stroke-width="1.2" filter="url(#soft)"/>
<rect x="1018.0" y="824.0" width="47.5" height="20" rx="10" fill="#cbedea"/><text x="1029.0" y="837.4" font-size="9.5" fill="#004c49" font-weight="700" letter-spacing="0.9">CONV</text>
<text x="1018.0" y="874.0" font-size="14.5" fill="#11161f" font-weight="700">ConvT 32<tspan font-family="'DejaVu Sans', 'Noto Sans Math', 'Segoe UI Symbol', 'Nimbus Sans', sans-serif">→</tspan>16</text>
<text x="1018.0" y="898.0" font-size="12.5" fill="#686f7b">16 × 128 × 128</text>
<text x="1018.0" y="920.0" font-size="12.5" fill="#686f7b">BN + ReLU</text>
<line x1="972.0" y1="881.0" x2="994.0" y2="881.0" stroke="#11161f" stroke-width="2.2" marker-end="url(#tip)"/>
<line x1="1202.0" y1="881.0" x2="1250.0" y2="881.0" stroke="#11161f" stroke-width="2.2" marker-end="url(#tip)"/>
<rect x="1256.0" y="806.0" width="210.0" height="150.0" rx="16" fill="#ffffff" stroke="#e1e5ea" stroke-width="1.2" filter="url(#soft)"/>
<rect x="1276.0" y="824.0" width="47.5" height="20" rx="10" fill="#ebe3fc"/><text x="1287.0" y="837.4" font-size="9.5" fill="#5b21b6" font-weight="700" letter-spacing="0.9">HEAD</text>
<text x="1276.0" y="874.0" font-size="14.5" fill="#11161f" font-weight="700">Conv 1×1 <tspan font-family="'DejaVu Sans', 'Noto Sans Math', 'Segoe UI Symbol', 'Nimbus Sans', sans-serif">→</tspan> 3</text>
<text x="1276.0" y="898.0" font-size="12.5" fill="#686f7b">Sigmoid</text>
<line x1="1472.0" y1="881.0" x2="1494.0" y2="881.0" stroke="#11161f" stroke-width="2.2" marker-end="url(#tip)"/>
<rect x="1500.0" y="806.0" width="190.0" height="150.0" rx="16" fill="#ffffff" stroke="#e1e5ea" stroke-width="1.2" filter="url(#soft)"/>
<rect x="1518.0" y="824.0" width="60.2" height="20" rx="10" fill="#ffe4da"/><text x="1529.0" y="837.4" font-size="9.5" fill="#a53a12" font-weight="700" letter-spacing="0.9">OUTPUT</text>
<text x="1518.0" y="876.0" font-size="16" fill="#11161f" font-weight="700">f<tspan dy="2.88" font-size="11.5">4</tspan><tspan dy="-2.88">(x)</tspan></text>
<path d="M1519.4,864.5 L1522.6,860.6 L1525.8,864.5" fill="none" stroke="#11161f" stroke-width="1.6" stroke-linecap="round" stroke-linejoin="round"/>
<text x="1518.0" y="900.0" font-size="12.5" fill="#686f7b">3×128×128</text>
<text x="1518.0" y="922.0" font-size="12.5" fill="#94a3b8">696,851 par.</text>
<line x1="56.0" y1="1008.0" x2="86.0" y2="1008.0" stroke="#11161f" stroke-width="2.2"/>
<text x="96.0" y="1012.0" font-size="12" fill="#686f7b">sequential step</text>
<line x1="218.5" y1="1008.0" x2="248.5" y2="1008.0" stroke="#8b93a0" stroke-width="1.8" stroke-dasharray="6 5"/>
<text x="258.5" y="1012.0" font-size="12" fill="#686f7b">skipped stages (channel floor reached)</text>
<text x="1690.0" y="1012.0" font-size="12" fill="#94a3b8" text-anchor="end" font-family="ui-monospace, SFMono-Regular, Menlo, Consolas, 'DejaVu Sans Mono', 'Liberation Mono', monospace">1,615,391 params  ·  lrad/decoder.py · lrad/train.py:train_decoders</text>
</svg>